<svg xmlns="http://www.w3.org/2000/svg" viewBox="0 0 1440 720">
    <rect width="1440" height="720" fill="#f2f2f2" />
    <g fill="none" stroke="#f7b811" stroke-width="2" opacity="0.2">
        <rect x="50" y="50" width="50" height="50" rx="10" />
        <rect x="150" y="100" width="40" height="40" rx="8" />
        <rect x="250" y="150" width="30" height="30" rx="6" />
        <rect x="100" y="250" width="70" height="70" rx="14" />
        <rect x="400" y="300" width="60" height="60" rx="12" />
        <rect x="700" y="100" width="80" height="80" rx="16" />
        <rect x="900" y="200" width="50" height="50" rx="10" />
        <rect x="1100" y="50" width="40" height="40" rx="8" />
        <rect x="1200" y="300" width="90" height="90" rx="18" />
        <rect x="1300" y="400" width="100" height="100" rx="20" />
        <rect x="50" y="600" width="50" height="50" rx="10" />
        <rect x="350" y="500" width="30" height="30" rx="6" />
        <rect x="500" y="600" width="70" height="70" rx="14" />
        <rect x="800" y="500" width="40" height="40" rx="8" />
        <rect x="950" y="600" width="60" height="60" rx="12" />
    </g>
    <g fill="none" stroke="#18458b" stroke-width="2" opacity="0.2">
        <rect x="200" y="300" width="50" height="50" rx="10" />
        <rect x="600" y="400" width="40" height="40" rx="8" />
        <rect x="300" y="200" width="30" height="30" rx="6" />
        <rect x="1100" y="150" width="70" height="70" rx="14" />
        <rect x="800" y="600" width="60" height="60" rx="12" />
        <rect x="100" y="350" width="80" height="80" rx="16" />
        <rect x="900" y="50" width="50" height="50" rx="10" />
        <rect x="700" y="250" width="40" height="40" rx="8" />
        <rect x="500" y="350" width="90" height="90" rx="18" />
        <rect x="400" y="450" width="100" height="100" rx="20" />
        <rect x="1150" y="500" width="50" height="50" rx="10" />
        <rect x="1250" y="600" width="30" height="30" rx="6" />
        <rect x="1350" y="150" width="70" height="70" rx="14" />
        <rect x="1400" y="250" width="40" height="40" rx="8" />
        <rect x="1450" y="350" width="60" height="60" rx="12" />
    </g>
</svg>